<?xml version="1.0" encoding="UTF-8" standalone="no"?>
<!DOCTYPE svg PUBLIC "-//W3C//DTD SVG 1.1//EN" "http://www.w3.org/Graphics/SVG/1.1/DTD/svg11.dtd">
<svg width="100%" height="100%" viewBox="0 0 3148 238" version="1.1" xmlns="http://www.w3.org/2000/svg" xmlns:xlink="http://www.w3.org/1999/xlink" xml:space="preserve" xmlns:serif="http://www.serif.com/" style="fill-rule:evenodd;clip-rule:evenodd;stroke-linejoin:round;stroke-miterlimit:2;">
    <g transform="matrix(1,0,0,1,-0.00049828,-0.00044132)">
        <g transform="matrix(1,0,0,1,-346.349,-961.365)">
            <g transform="matrix(2.65372,0,0,2.65372,-679.576,70.164)">
                <path d="M426.608,423.655C418.476,423.655 411.421,421.866 405.444,418.288C399.467,414.71 394.832,409.77 391.539,403.468C388.245,397.166 386.599,389.949 386.599,381.817L386.599,337.538L389.282,337.538L389.282,381.573C389.282,389.379 390.868,396.23 394.039,402.126C397.211,408.022 401.602,412.616 407.213,415.91C412.824,419.203 419.289,420.85 426.608,420.85C434.252,420.85 440.94,419.203 446.673,415.91C452.406,412.616 456.879,408.022 460.091,402.126C463.303,396.23 464.909,389.379 464.909,381.573L464.909,337.538L467.592,337.538L467.592,382.061C467.592,390.111 465.905,397.267 462.53,403.529C459.155,409.79 454.398,414.71 448.259,418.288C442.119,421.866 434.902,423.655 426.608,423.655Z" style="fill:white;fill-rule:nonzero;"/>
                <path d="M514.188,422.923L514.188,337.538L517.847,337.538L594.084,420.728L593.474,420.85C593.393,419.386 593.352,417.739 593.352,415.91L593.352,398.467C593.352,396.637 593.311,394.99 593.23,393.527L593.23,337.538L595.914,337.538L595.914,422.923L592.254,422.923L516.018,339.368L516.628,339.368C516.628,340.344 516.648,341.462 516.689,342.723C516.729,343.983 516.77,345.406 516.811,346.992C516.851,348.578 516.872,350.326 516.872,352.237L516.872,422.923L514.188,422.923Z" style="fill:white;fill-rule:nonzero;"/>
                <path d="M647.389,425.241L645.193,423.533L743.508,335.831L745.825,337.66L647.389,425.241ZM695.57,424.143C687.926,424.143 680.933,423.045 674.59,420.85C668.247,418.654 662.778,415.584 658.184,411.64C653.589,407.696 650.052,403.061 647.571,397.735C645.091,392.408 643.851,386.614 643.851,380.353C643.851,374.091 645.091,368.297 647.571,362.971C650.052,357.645 653.589,352.989 658.184,349.004C662.778,345.02 668.247,341.909 674.59,339.673C680.933,337.437 687.926,336.319 695.57,336.319C703.133,336.319 710.085,337.416 716.428,339.612C722.771,341.808 728.24,344.878 732.834,348.821C737.429,352.765 740.987,357.421 743.508,362.788C746.028,368.155 747.289,374.01 747.289,380.353C747.289,386.696 746.028,392.53 743.508,397.857C740.987,403.183 737.429,407.818 732.834,411.762C728.24,415.706 722.771,418.756 716.428,420.911C710.085,423.066 703.133,424.143 695.57,424.143ZM695.57,421.46C702.726,421.46 709.293,420.423 715.269,418.349C721.246,416.276 726.41,413.389 730.761,409.689C735.111,405.989 738.486,401.638 740.885,396.637C743.284,391.636 744.483,386.208 744.483,380.353C744.483,374.498 743.284,369.05 740.885,364.008C738.486,358.966 735.111,354.575 730.761,350.834C726.41,347.093 721.246,344.186 715.269,342.113C709.293,340.039 702.726,339.002 695.57,339.002C688.414,339.002 681.847,340.039 675.87,342.113C669.894,344.186 664.73,347.093 660.379,350.834C656.029,354.575 652.654,358.966 650.255,364.008C647.856,369.05 646.657,374.498 646.657,380.353C646.657,386.208 647.856,391.636 650.255,396.637C652.654,401.638 656.029,405.989 660.379,409.689C664.73,413.389 669.894,416.276 675.87,418.349C681.847,420.423 688.414,421.46 695.57,421.46Z" style="fill:white;fill-rule:nonzero;"/>
                <path d="M788.761,422.923L788.761,337.538L834.503,337.538C840.44,337.538 845.441,338.331 849.507,339.917C853.573,341.503 856.683,343.8 858.838,346.809C860.993,349.818 862.071,353.518 862.071,357.909C862.071,363.601 860.261,368.175 856.642,371.631C853.024,375.088 847.799,377.263 840.968,378.157L840.846,376.816C846.376,377.141 851.052,378.259 854.874,380.17C858.696,382.081 861.603,384.663 863.595,387.916C865.588,391.168 866.584,395.112 866.584,399.747C866.584,403.488 865.913,406.802 864.571,409.689C863.229,412.576 861.278,414.995 858.716,416.946C856.155,418.898 853.003,420.382 849.263,421.399C845.522,422.415 841.212,422.923 836.333,422.923L788.761,422.923ZM791.445,420.24L834.991,420.24C841.172,420.402 846.376,419.732 850.605,418.227C854.833,416.723 858.086,414.405 860.363,411.274C862.64,408.144 863.778,404.301 863.778,399.747C863.778,395.194 862.68,391.372 860.485,388.281C858.289,385.191 855.097,382.833 850.909,381.207C846.722,379.58 841.619,378.767 835.601,378.767L791.445,378.767L791.445,420.24ZM791.445,376.084L836.455,376.084C841.334,376.084 845.481,375.372 848.897,373.949C852.312,372.526 854.894,370.452 856.642,367.728C858.391,365.004 859.265,361.69 859.265,357.787C859.265,352.176 857.191,347.846 853.044,344.796C848.897,341.747 843.001,340.222 835.357,340.222L791.445,340.222L791.445,376.084Z" style="fill:white;fill-rule:nonzero;"/>
                <path d="M942.21,424.143C936.274,424.143 930.805,423.574 925.804,422.435C920.803,421.297 916.249,419.589 912.143,417.312C908.036,415.035 904.397,412.23 901.226,408.896L902.689,406.334C907.081,411.295 912.651,415.056 919.4,417.617C926.15,420.179 933.753,421.46 942.21,421.46C949.366,421.46 955.567,420.606 960.812,418.898C966.057,417.19 970.103,414.751 972.949,411.579C975.795,408.408 977.137,404.708 976.974,400.479C976.974,397.552 976.181,395.092 974.596,393.1C973.01,391.107 970.896,389.461 968.253,388.16C965.61,386.858 962.682,385.801 959.47,384.988C956.258,384.175 953.066,383.524 949.895,383.036C946.724,382.549 943.796,382.142 941.113,381.817C936.884,381.247 932.574,380.577 928.183,379.804C923.792,379.031 919.766,377.893 916.107,376.389C912.448,374.884 909.5,372.811 907.264,370.168C905.027,367.525 903.909,364.048 903.909,359.739C903.909,356.079 904.824,352.786 906.654,349.858C908.483,346.931 911.045,344.471 914.338,342.479C917.632,340.486 921.474,338.962 925.865,337.904C930.256,336.847 935.014,336.319 940.137,336.319C945.341,336.319 950.139,336.766 954.53,337.66C958.921,338.555 962.865,339.897 966.362,341.686C969.859,343.475 972.868,345.711 975.388,348.395L973.803,350.59C971.201,347.988 968.212,345.833 964.837,344.125C961.463,342.418 957.722,341.137 953.615,340.283C949.509,339.429 945.016,339.002 940.137,339.002C934.038,339.002 928.447,339.836 923.365,341.503C918.282,343.17 914.237,345.487 911.228,348.456C908.219,351.424 906.715,354.941 906.715,359.007C906.715,362.991 907.792,366.203 909.947,368.643C912.102,371.083 914.908,372.973 918.364,374.315C921.82,375.657 925.56,376.653 929.586,377.303C933.611,377.954 937.494,378.523 941.235,379.011C945.544,379.58 949.936,380.251 954.408,381.024C958.881,381.796 963.048,382.914 966.911,384.378C970.774,385.842 973.884,387.895 976.242,390.538C978.601,393.181 979.78,396.657 979.78,400.967C979.78,405.521 978.316,409.546 975.388,413.043C972.461,416.54 968.192,419.264 962.581,421.216C956.97,423.167 950.18,424.143 942.21,424.143Z" style="fill:white;fill-rule:nonzero;"/>
                <path d="M1024.18,422.923L1024.18,337.538L1088.95,337.538L1088.95,340.222L1026.86,340.222L1026.86,420.24L1088.22,420.24L1088.22,422.923L1024.18,422.923ZM1025.64,380.109L1025.64,377.425L1081.88,377.425L1081.88,380.109L1025.64,380.109Z" style="fill:white;fill-rule:nonzero;"/>
                <path d="M1136.77,422.923L1136.77,337.538L1180.92,337.538C1185.48,337.538 1189.48,338.514 1192.94,340.466C1196.39,342.418 1199.12,345.101 1201.11,348.517C1203.1,351.932 1204.1,355.835 1204.1,360.226C1204.1,365.919 1203,370.839 1200.81,374.986C1198.61,379.133 1195.54,382.345 1191.6,384.622C1187.65,386.899 1182.95,388.038 1177.51,388.038L1139.45,388.038L1139.45,422.923L1136.77,422.923ZM1205.07,422.923L1176.29,386.574L1179.58,386.208L1208.61,422.923L1205.07,422.923ZM1139.45,385.354L1176.78,385.354C1181.9,385.354 1186.29,384.317 1189.95,382.244C1193.61,380.17 1196.41,377.263 1198.37,373.522C1200.32,369.781 1201.29,365.39 1201.29,360.348C1201.29,356.526 1200.4,353.111 1198.61,350.102C1196.82,347.093 1194.36,344.695 1191.23,342.906C1188.1,341.117 1184.42,340.222 1180.19,340.222L1139.45,340.222L1139.45,385.354Z" style="fill:white;fill-rule:nonzero;"/>
                <path d="M1285.7,422.923L1243.74,337.538L1246.67,337.416L1280.34,406.09C1281.72,408.937 1282.88,411.274 1283.81,413.104C1284.75,414.934 1285.5,416.398 1286.07,417.495C1286.64,418.593 1287.08,419.467 1287.41,420.118C1287.74,420.768 1288.02,421.338 1288.26,421.826L1287.04,421.826C1288.18,419.63 1289.18,417.678 1290.03,415.971C1290.89,414.263 1291.7,412.616 1292.47,411.03C1293.24,409.445 1294.04,407.839 1294.85,406.212L1328.64,337.416L1331.57,337.538L1289.48,422.923L1285.7,422.923Z" style="fill:white;fill-rule:nonzero;"/>
                <path d="M1372.55,422.923L1372.55,337.538L1437.32,337.538L1437.32,340.222L1375.23,340.222L1375.23,420.24L1436.59,420.24L1436.59,422.923L1372.55,422.923ZM1374.01,380.109L1374.01,377.425L1430.25,377.425L1430.25,380.109L1374.01,380.109Z" style="fill:white;fill-rule:nonzero;"/>
                <path d="M1485.14,422.923L1485.14,337.538L1525.02,337.538C1531.93,337.538 1538.3,338.596 1544.11,340.71C1549.93,342.824 1554.95,345.772 1559.18,349.553C1563.41,353.335 1566.7,357.828 1569.06,363.032C1571.42,368.236 1572.6,373.969 1572.6,380.231C1572.6,386.411 1571.42,392.124 1569.06,397.369C1566.7,402.614 1563.41,407.127 1559.18,410.908C1554.95,414.69 1549.93,417.638 1544.11,419.752C1538.3,421.866 1531.93,422.923 1525.02,422.923L1485.14,422.923ZM1487.82,421.338L1486.6,420.24L1524.41,420.24C1531,420.24 1537.06,419.264 1542.59,417.312C1548.12,415.361 1552.92,412.596 1556.98,409.018C1561.05,405.44 1564.2,401.211 1566.43,396.332C1568.67,391.453 1569.79,386.086 1569.79,380.231C1569.79,374.376 1568.67,369.009 1566.43,364.13C1564.2,359.251 1561.05,355.022 1556.98,351.444C1552.92,347.866 1548.12,345.101 1542.59,343.149C1537.06,341.198 1531,340.222 1524.41,340.222L1486.48,340.222L1487.82,338.88L1487.82,421.338Z" style="fill:white;fill-rule:nonzero;"/>
            </g>
        </g>
    </g>
</svg>
