<?xml version="1.0" encoding="UTF-8" standalone="no"?>
<!DOCTYPE svg PUBLIC "-//W3C//DTD SVG 1.1//EN" "http://www.w3.org/Graphics/SVG/1.1/DTD/svg11.dtd">
<svg width="100%" height="100%" viewBox="0 0 100 135" version="1.1" xmlns="http://www.w3.org/2000/svg" xmlns:xlink="http://www.w3.org/1999/xlink" xml:space="preserve" xmlns:serif="http://www.serif.com/" style="fill-rule:evenodd;clip-rule:evenodd;stroke-linejoin:round;stroke-miterlimit:2;">
    <g transform="matrix(1,0,0,1,-89.5828,-103.536)">
        <g transform="matrix(0.383274,0,0,0.383274,-18.7765,-88.3223)">
            <g id="layer1">
                <path id="path10320" d="M394.886,851.079C371.866,848.155 348.502,838.141 330.483,823.475C291.01,793.596 276.686,742.661 284.991,699.222C287.579,685.786 292.364,672.527 298.819,660.902C303.149,653.103 314.75,636.4 343.664,596.332C348.609,589.48 357.876,576.324 365.833,564.861C369.441,559.663 375.832,550.47 380.034,544.433C391.952,527.315 398.912,517.052 401.898,512.195C410.069,498.907 414.063,497.466 420.226,505.586C423,509.241 439.89,533.73 455.27,556.398C458.37,560.966 463.363,568.114 466.366,572.281C469.369,576.449 473.497,582.315 475.54,585.318C477.584,588.32 480.441,592.458 481.889,594.513C487.149,601.972 498.797,618.43 505.305,627.598C522.154,651.335 526.613,658.199 530.895,666.999C540.23,686.18 543.699,701.963 543.629,724.929C543.568,744.772 540.77,758.19 533.022,775.797C530.697,781.082 523.867,793.101 520.868,797.188C513.509,807.215 502.858,818.104 493.238,825.436C474.877,839.43 449.443,849.471 427.299,851.468C418.471,852.265 402.73,852.076 394.886,851.079ZM432.082,838.019C449.718,834.68 464.901,828.475 480.865,818.083C487.014,814.08 494.894,807.659 494.338,807.104C494.173,806.939 492.309,807.766 490.196,808.941C483.605,812.606 472.795,816.703 463.486,819.065C445.57,823.61 425.098,822.798 409.825,816.937C400.555,813.379 396.354,811.309 390.312,807.323C377.051,798.574 365.585,783.984 360.705,769.647C356.67,757.794 356.115,743.053 359.261,731.331C364.058,713.46 378.442,699.008 395.745,694.674C403.04,692.846 414.665,693.239 421.716,695.552C427.995,697.612 433.349,700.802 438.479,705.543C444.859,711.439 448.851,720.283 448.851,728.523C448.851,731.992 449.618,733.069 450.307,730.569C451.405,726.588 451.429,720.43 450.359,716.931C448.7,711.498 443.648,701.665 440.055,696.875C432.712,687.085 418.065,678.534 404.963,676.389C399.976,675.572 391.364,675.606 386.445,676.46C367.451,679.761 348.841,694.381 340.222,712.774C336.647,720.403 335.009,726.195 333.814,735.432C332.781,743.413 332.785,743.586 334.151,752.08C338.407,778.545 353.193,801.199 375.525,815.47C377.286,816.595 378.726,817.592 378.726,817.685C378.726,818.254 370.945,815.005 365.705,812.248C357.285,807.818 351.449,803.487 344.579,796.573C333.562,785.485 327.326,774.439 322.896,758.161C321.756,753.975 320.763,745.168 320.739,739.039C320.686,725.366 323.77,712.939 330.063,701.465C334.5,693.375 342.905,683.79 350.981,677.609C356.497,673.389 366.548,667.516 370.576,666.161C383.858,661.694 397.585,661.017 410.006,664.215C421.821,667.257 434.285,675.884 440.898,685.597C445.207,691.925 448.173,698.085 449.635,703.741C450.437,706.845 451.313,709.589 451.582,709.839C452.288,710.496 451.483,701.75 450.414,697.143C448.624,689.435 446.185,683.629 441.026,674.796C433.821,662.46 419.381,651.133 405.557,646.975C398.01,644.705 394.956,644.085 388.493,643.513C372.361,642.086 352.882,646.741 338.272,655.514C311.49,671.596 295.137,702.205 296.626,733.465C297.871,759.616 308.754,783.466 329.003,804.418C338.447,814.189 346.647,820.286 358.626,826.439C371.12,832.856 387.642,837.648 403.727,839.518C408.928,840.123 425.634,839.239 432.082,838.019L432.082,838.019Z" style="fill:rgb(139,139,176);fill-rule:nonzero;"/>
            </g>
        </g>
    </g>
</svg>
